inDegrees=no
num_controls=7
num_derivatives=13
num_iterations=129
num_multipliers=7
num_parameters=0
num_slacks=7
num_states=26
objective=0.545133
objective_accelerations=0.041865
objective_balance=0.003853
objective_effort=0.040932
objective_height=0.449031
objective_ligament=0.009452
solver_duration=1381.665555
status=Solve_Succeeded
success=true
DataType=double
version=3
OpenSimVersion=4.5
endheader
time	/jointset/ground_pelvis/pelvis_tilt/value	/jointset/ground_pelvis/pelvis_tx/value	/jointset/ground_pelvis/pelvis_ty/value	/jointset/hip_r/hip_flexion_r/value	/jointset/hip_r/hip_adduction_r/value	/jointset/hip_r/hip_rotation_r/value	/jointset/back/lumbar_extension/value	/jointset/patellofemoral_r/patellar_flexion_r/value	/jointset/knee_r/knee_flexion_r/value	/jointset/knee_r/knee_adduction_r/value	/jointset/knee_r/knee_rotation_r/value	/jointset/ankle_r/ankle_angle_r/value	/jointset/subtalar_r/subtalar_angle_r/value	/jointset/ground_pelvis/pelvis_tilt/speed	/jointset/ground_pelvis/pelvis_tx/speed	/jointset/ground_pelvis/pelvis_ty/speed	/jointset/hip_r/hip_flexion_r/speed	/jointset/hip_r/hip_adduction_r/speed	/jointset/hip_r/hip_rotation_r/speed	/jointset/back/lumbar_extension/speed	/jointset/patellofemoral_r/patellar_flexion_r/speed	/jointset/knee_r/knee_flexion_r/speed	/jointset/knee_r/knee_adduction_r/speed	/jointset/knee_r/knee_rotation_r/speed	/jointset/ankle_r/ankle_angle_r/speed	/jointset/subtalar_r/subtalar_angle_r/speed	/forceset/tau_hip_flexion_r	/forceset/tau_hip_adduction_r	/forceset/tau_hip_rotation_r	/forceset/tau_knee_flexion_r	/forceset/tau_ankle_angle_r	/forceset/tau_subtalar_angle_r	/forceset/tau_lumbar_extension	lambda_cid13_p0	lambda_cid14_p0	lambda_cid14_p1	lambda_cid14_p2	lambda_cid14_p3	lambda_cid14_p4	lambda_cid14_p5	/jointset/ground_pelvis/pelvis_tilt/accel	/jointset/ground_pelvis/pelvis_tx/accel	/jointset/ground_pelvis/pelvis_ty/accel	/jointset/hip_r/hip_flexion_r/accel	/jointset/hip_r/hip_adduction_r/accel	/jointset/hip_r/hip_rotation_r/accel	/jointset/back/lumbar_extension/accel	/jointset/patellofemoral_r/patellar_flexion_r/accel	/jointset/knee_r/knee_flexion_r/accel	/jointset/knee_r/knee_adduction_r/accel	/jointset/knee_r/knee_rotation_r/accel	/jointset/ankle_r/ankle_angle_r/accel	/jointset/subtalar_r/subtalar_angle_r/accel	gamma_cid13_p0	gamma_cid14_p0	gamma_cid14_p1	gamma_cid14_p2	gamma_cid14_p3	gamma_cid14_p4	gamma_cid14_p5
1	-0.404108576890327	-0.04759068281403957	0.7011082532143218	1.476249869303257	-0.2307973204407802	-0.06208982379623641	-0.4363208653688598	1.165509769947513	1.165509769947325	-0.0285445082770119	0.1745253411174823	0.2812747929092685	0.05966820701675005	-0.001145777530813722	0.002767985312853597	0.01351045434913383	-0.0365817230979365	0.001499718009926005	-0.01017992301825331	-0.0003350811142246832	-0.04630525808724407	-0.04630525808724397	0.0004918316202823442	-6.424060008119254e-06	-0.009862976009970197	-0.0006987292739211673	-0.3432529045950067	0.009787187066733847	0.01216343154330075	-0.3921964541299557	0.05705843222670918	0.001615766362252636	0.3331733916455236	-2.802225625772302	-30.28928837712913	-3.670977811436482	-0.01789482003852374	13.82816231144743	-785.7075277767897	54.60299031378977	1.745953725051727	0.2165764949747279	1.464158475041606	-5.31432469074953	0.06896189297627177	-0.732959301106022	-0.0244357087037444	-4.330733776131662	-4.330733776131439	0.3586191963559746	0.007237210178859083	-0.9138159773293962	-0.1645446581729519	4.973739916037906e-10	1.304383907682487e-10	7.098922009283534e-09	5.949597471333835e-09	1.043590390697024e-09	-2.831846827775468e-09	5.532714577049363e-09
1.01	-0.404033415971267	-0.04755217386674025	0.7013164191618855	1.475619216217878	-0.2307787943420723	-0.06222766348204971	-0.4363245452638691	1.164830373014689	1.164830373014619	-0.02852129521225092	0.1745252276089516	0.2811304743586386	0.05965309289385079	0.01618406026961573	0.004938301396158466	0.02812132872386293	-0.089557335470967	0.002205524870608979	-0.01738316900646869	-0.0003946722165243079	-0.08957579906666208	-0.08957579906666198	0.004156979460459896	-1.745236998537985e-05	-0.0190003129368297	-0.002323954385581699	-0.3431900054438288	0.009828477212246695	0.01217168570846444	-0.3919988206603482	0.05715266590915649	0.001578583846678201	0.3331687505953152	-2.828267292925052	-30.25232922339143	-3.680326961423273	-0.01677885763332958	13.74680477204545	-785.6120611522089	54.56609037224371	1.727414031511613	0.217933825882492	1.459339840787256	-5.290445467728511	0.07139589669531358	-0.7132809351372359	0.004213039833005795	-4.325464997440099	-4.325464997440235	0.3713942858952069	-0.005446616344323105	-0.9136298370925656	-0.1614867768321974	7.485525315606928e-10	6.980496897522335e-10	1.405049873774667e-08	1.083690603158904e-08	3.741280691588474e-10	-5.532464846021011e-09	1.055773728906104e-08
1.02	-0.4037847736294058	-0.04749182682643311	0.7016706514376162	1.474458553817342	-0.2307532090119399	-0.06243739036524067	-0.4363286342997108	1.163718220524352	1.163718220524399	-0.02846124432747766	0.1745249690643675	0.2808947949813947	0.05962173145200107	0.03355050702896567	0.007135603914419297	0.04272371998252632	-0.1425835861299479	0.002911564294532861	-0.02455736249300233	-0.0004169092857813711	-0.1328563695898093	-0.1328563695898096	0.007859395622499559	-3.543127029438753e-05	-0.02813514133282256	-0.003948193064026183	-0.3431271062926463	0.009869767357755101	0.01217993987364461	-0.3918011871907403	0.057246899591602	0.001541401331096934	0.3331641095451124	-2.87118121432592	-30.22424084429922	-3.688497419705046	-0.01897136684689563	13.67918181280518	-785.6561724867547	54.54373757043129	1.753275516835815	0.2219737819659305	1.462461851828466	-5.324452347939616	0.06900840562445126	-0.7271488007696747	-0.01696490209504016	-4.332739684877501	-4.332739684877367	0.3660728607284005	0.005847092112511778	-0.9133142711560543	-0.1643473715297406	1.000084996449633e-09	9.650123865304569e-10	2.067511287798278e-08	1.584239722042915e-08	3.816482653831714e-10	-8.101876795481163e-09	1.531043169064158e-08
1.03	-0.4033624847702335	-0.04740930720619383	0.7021708178367109	1.472767558331115	-0.230720579027632	-0.06271866486149537	-0.4363321730842924	1.162173234657985	1.162173234657985	-0.02836390476636606	0.1745245057208759	0.2805678151842534	0.05957412026097324	0.05089311495475757	0.009379331091538785	0.05730342808622375	-0.1956056807144561	0.003613206392045821	-0.03168757592802053	-0.0002256883135426893	-0.1761403475302009	-0.1761403475302039	0.01162203847504198	-5.833877558257471e-05	-0.03725671363529944	-0.005574484117180396	-0.3431053899948368	0.00990711329934995	0.0121995423870074	-0.3914160625620574	0.05740785974400933	0.00150521774223839	0.3333062003376249	-2.931325936145273	-30.16612715443437	-3.68799905806541	-0.02594718548500951	13.50958282612159	-785.6251561593557	54.51795189738368	1.722631632303407	0.2272239086206482	1.454803377565033	-5.289613000349056	0.07056275144715897	-0.7044644218419576	0.04693949790605549	-4.32615867748634	-4.326158677486855	0.3833921808706503	-0.006520168980858646	-0.9109639688023214	-0.1618289794130111	1.251621072817471e-09	1.228907240429028e-09	2.729639066527781e-08	2.084909435445891e-08	3.960764464826269e-10	-1.066994990750473e-08	2.00603472319116e-08
